<svg width="700" height="2565" viewBox="0 0 700 2565" fill="none" xmlns="http://www.w3.org/2000/svg">
<g clip-path="url(#clip0)">
<rect x="-1152.29" y="1930.13" width="2622.81" height="5.50661" transform="rotate(-59.5537 -1152.29 1930.13)" fill="#9BCD5B" fill-opacity="0.27"/>
<rect x="-1142.8" y="1935.71" width="2622.81" height="5.50661" transform="rotate(-59.5537 -1142.8 1935.71)" fill="#9BCD5B" fill-opacity="0.27"/>
<rect x="-1133.31" y="1941.29" width="2622.81" height="5.50661" transform="rotate(-59.5537 -1133.31 1941.29)" fill="#9BCD5B" fill-opacity="0.27"/>
<rect x="-1123.81" y="1946.87" width="2622.81" height="5.50661" transform="rotate(-59.5537 -1123.81 1946.87)" fill="#9BCD5B" fill-opacity="0.27"/>
<rect x="-1114.32" y="1952.45" width="2622.81" height="5.50661" transform="rotate(-59.5537 -1114.32 1952.45)" fill="#9BCD5B" fill-opacity="0.27"/>
<rect x="-1104.83" y="1958.03" width="2622.81" height="5.50661" transform="rotate(-59.5537 -1104.83 1958.03)" fill="#9BCD5B" fill-opacity="0.27"/>
<rect x="-1095.34" y="1963.61" width="2622.81" height="5.50661" transform="rotate(-59.5537 -1095.34 1963.61)" fill="#9BCD5B" fill-opacity="0.27"/>
<rect x="-1085.84" y="1969.19" width="2622.81" height="5.50661" transform="rotate(-59.5537 -1085.84 1969.19)" fill="#9BCD5B" fill-opacity="0.27"/>
<rect x="-1076.35" y="1974.77" width="2622.81" height="5.50661" transform="rotate(-59.5537 -1076.35 1974.77)" fill="#9BCD5B" fill-opacity="0.27"/>
<rect x="-1066.86" y="1980.35" width="2622.81" height="5.50661" transform="rotate(-59.5537 -1066.86 1980.35)" fill="#9BCD5B" fill-opacity="0.27"/>
<rect x="-1057.36" y="1985.93" width="2622.81" height="5.50661" transform="rotate(-59.5537 -1057.36 1985.93)" fill="#9BCD5B" fill-opacity="0.27"/>
<rect x="-1047.87" y="1991.51" width="2622.81" height="5.50661" transform="rotate(-59.5537 -1047.87 1991.51)" fill="#9BCD5B" fill-opacity="0.27"/>
<rect x="-1038.38" y="1997.09" width="2622.81" height="5.50661" transform="rotate(-59.5537 -1038.38 1997.09)" fill="#9BCD5B" fill-opacity="0.27"/>
<rect x="-1028.89" y="2002.67" width="2622.81" height="5.50661" transform="rotate(-59.5537 -1028.89 2002.67)" fill="#9BCD5B" fill-opacity="0.27"/>
<rect x="-1019.39" y="2008.25" width="2622.81" height="5.50661" transform="rotate(-59.5537 -1019.39 2008.25)" fill="#9BCD5B" fill-opacity="0.27"/>
<rect x="-1009.9" y="2013.83" width="2622.81" height="5.50661" transform="rotate(-59.5537 -1009.9 2013.83)" fill="#9BCD5B" fill-opacity="0.27"/>
<rect x="-1000.41" y="2019.41" width="2622.81" height="5.50661" transform="rotate(-59.5537 -1000.41 2019.41)" fill="#9BCD5B" fill-opacity="0.27"/>
<rect x="-990.914" y="2024.99" width="2622.81" height="5.50661" transform="rotate(-59.5537 -990.914 2024.99)" fill="#9BCD5B" fill-opacity="0.27"/>
<rect x="-981.421" y="2030.57" width="2622.81" height="5.50661" transform="rotate(-59.5537 -981.421 2030.57)" fill="#9BCD5B" fill-opacity="0.27"/>
<rect x="-971.928" y="2036.15" width="2622.81" height="5.50661" transform="rotate(-59.5537 -971.928 2036.15)" fill="#9BCD5B" fill-opacity="0.27"/>
<rect x="-962.435" y="2041.73" width="2622.81" height="5.50661" transform="rotate(-59.5537 -962.435 2041.73)" fill="#9BCD5B" fill-opacity="0.27"/>
<rect x="-952.942" y="2047.31" width="2622.81" height="5.50661" transform="rotate(-59.5537 -952.942 2047.31)" fill="#9BCD5B" fill-opacity="0.27"/>
<rect x="-943.449" y="2052.89" width="2622.81" height="5.50661" transform="rotate(-59.5537 -943.449 2052.89)" fill="#9BCD5B" fill-opacity="0.27"/>
<rect x="-933.956" y="2058.47" width="2622.81" height="5.50661" transform="rotate(-59.5537 -933.956 2058.47)" fill="#9BCD5B" fill-opacity="0.27"/>
<rect x="-924.463" y="2064.05" width="2622.81" height="5.50661" transform="rotate(-59.5537 -924.463 2064.05)" fill="#9BCD5B" fill-opacity="0.27"/>
<rect x="-914.97" y="2069.63" width="2622.81" height="5.50661" transform="rotate(-59.5537 -914.97 2069.63)" fill="#9BCD5B" fill-opacity="0.27"/>
<rect x="-905.477" y="2075.21" width="2622.81" height="5.50661" transform="rotate(-59.5537 -905.477 2075.21)" fill="#9BCD5B" fill-opacity="0.27"/>
<rect x="-895.985" y="2080.79" width="2622.81" height="5.50661" transform="rotate(-59.5537 -895.985 2080.79)" fill="#9BCD5B" fill-opacity="0.27"/>
<rect x="-886.492" y="2086.37" width="2622.81" height="5.50661" transform="rotate(-59.5537 -886.492 2086.37)" fill="#9BCD5B" fill-opacity="0.27"/>
<rect x="-876.999" y="2091.95" width="2622.81" height="5.50661" transform="rotate(-59.5537 -876.999 2091.95)" fill="#9BCD5B" fill-opacity="0.27"/>
<rect x="-867.506" y="2097.53" width="2622.81" height="5.50661" transform="rotate(-59.5537 -867.506 2097.53)" fill="#9BCD5B" fill-opacity="0.27"/>
<rect x="-858.013" y="2103.11" width="2622.81" height="5.50661" transform="rotate(-59.5537 -858.013 2103.11)" fill="#9BCD5B" fill-opacity="0.27"/>
<rect x="-848.52" y="2108.69" width="2622.81" height="5.50661" transform="rotate(-59.5537 -848.52 2108.69)" fill="#9BCD5B" fill-opacity="0.27"/>
<rect x="-839.027" y="2114.27" width="2622.81" height="5.50661" transform="rotate(-59.5537 -839.027 2114.27)" fill="#9BCD5B" fill-opacity="0.27"/>
<rect x="-829.534" y="2119.85" width="2622.81" height="5.50661" transform="rotate(-59.5537 -829.534 2119.85)" fill="#9BCD5B" fill-opacity="0.27"/>
<rect x="-820.041" y="2125.43" width="2622.81" height="5.50661" transform="rotate(-59.5537 -820.041 2125.43)" fill="#9BCD5B" fill-opacity="0.27"/>
<rect x="-810.548" y="2131.01" width="2622.81" height="5.50661" transform="rotate(-59.5537 -810.548 2131.01)" fill="#9BCD5B" fill-opacity="0.27"/>
<rect x="-801.055" y="2136.59" width="2622.81" height="5.50661" transform="rotate(-59.5537 -801.055 2136.59)" fill="#9BCD5B" fill-opacity="0.27"/>
<rect x="-791.562" y="2142.17" width="2622.81" height="5.50661" transform="rotate(-59.5537 -791.562 2142.17)" fill="#9BCD5B" fill-opacity="0.27"/>
<rect x="-782.069" y="2147.75" width="2622.81" height="5.50661" transform="rotate(-59.5537 -782.069 2147.75)" fill="#9BCD5B" fill-opacity="0.27"/>
<rect x="-772.577" y="2153.33" width="2622.81" height="5.50661" transform="rotate(-59.5537 -772.577 2153.33)" fill="#9BCD5B" fill-opacity="0.27"/>
<rect x="-763.083" y="2158.91" width="2622.81" height="5.50661" transform="rotate(-59.5537 -763.083 2158.91)" fill="#9BCD5B" fill-opacity="0.27"/>
<rect x="-753.591" y="2164.49" width="2622.81" height="5.50661" transform="rotate(-59.5537 -753.591 2164.49)" fill="#9BCD5B" fill-opacity="0.27"/>
<rect x="-744.098" y="2170.07" width="2622.81" height="5.50661" transform="rotate(-59.5537 -744.098 2170.07)" fill="#9BCD5B" fill-opacity="0.27"/>
<rect x="-734.605" y="2175.64" width="2622.81" height="5.50661" transform="rotate(-59.5537 -734.605 2175.64)" fill="#9BCD5B" fill-opacity="0.27"/>
<rect x="-725.112" y="2181.22" width="2622.81" height="5.50661" transform="rotate(-59.5537 -725.112 2181.22)" fill="#9BCD5B" fill-opacity="0.27"/>
<rect x="-715.619" y="2186.8" width="2622.81" height="5.50661" transform="rotate(-59.5537 -715.619 2186.8)" fill="#9BCD5B" fill-opacity="0.27"/>
<rect x="-706.126" y="2192.38" width="2622.81" height="5.50661" transform="rotate(-59.5537 -706.126 2192.38)" fill="#9BCD5B" fill-opacity="0.27"/>
<rect x="-696.633" y="2197.96" width="2622.81" height="5.50661" transform="rotate(-59.5537 -696.633 2197.96)" fill="#9BCD5B" fill-opacity="0.27"/>
<rect x="-687.14" y="2203.54" width="2622.81" height="5.50661" transform="rotate(-59.5537 -687.14 2203.54)" fill="#9BCD5B" fill-opacity="0.27"/>
<rect x="-677.647" y="2209.12" width="2622.81" height="5.50661" transform="rotate(-59.5537 -677.647 2209.12)" fill="#9BCD5B" fill-opacity="0.27"/>
<rect x="-668.154" y="2214.7" width="2622.81" height="5.50661" transform="rotate(-59.5537 -668.154 2214.7)" fill="#9BCD5B" fill-opacity="0.27"/>
<rect x="-658.661" y="2220.28" width="2622.81" height="5.50661" transform="rotate(-59.5537 -658.661 2220.28)" fill="#9BCD5B" fill-opacity="0.27"/>
<rect x="-649.169" y="2225.86" width="2622.81" height="5.50661" transform="rotate(-59.5537 -649.169 2225.86)" fill="#9BCD5B" fill-opacity="0.27"/>
<rect x="-639.676" y="2231.44" width="2622.81" height="5.50661" transform="rotate(-59.5537 -639.676 2231.44)" fill="#9BCD5B" fill-opacity="0.27"/>
<rect x="-630.183" y="2237.02" width="2622.81" height="5.50661" transform="rotate(-59.5537 -630.183 2237.02)" fill="#9BCD5B" fill-opacity="0.27"/>
<rect x="-620.69" y="2242.6" width="2622.81" height="5.50661" transform="rotate(-59.5537 -620.69 2242.6)" fill="#9BCD5B" fill-opacity="0.27"/>
<rect x="-611.197" y="2248.18" width="2622.81" height="5.50661" transform="rotate(-59.5537 -611.197 2248.18)" fill="#9BCD5B" fill-opacity="0.27"/>
<rect x="-601.704" y="2253.76" width="2622.81" height="5.50661" transform="rotate(-59.5537 -601.704 2253.76)" fill="#9BCD5B" fill-opacity="0.27"/>
<rect x="-592.211" y="2259.34" width="2622.81" height="5.50661" transform="rotate(-59.5537 -592.211 2259.34)" fill="#9BCD5B" fill-opacity="0.27"/>
<rect x="-582.718" y="2264.92" width="2622.81" height="5.50661" transform="rotate(-59.5537 -582.718 2264.92)" fill="#9BCD5B" fill-opacity="0.27"/>
<rect x="-573.225" y="2270.5" width="2622.81" height="5.50661" transform="rotate(-59.5537 -573.225 2270.5)" fill="#9BCD5B" fill-opacity="0.27"/>
<rect x="-563.732" y="2276.08" width="2622.81" height="5.50661" transform="rotate(-59.5537 -563.732 2276.08)" fill="#9BCD5B" fill-opacity="0.27"/>
<rect x="-554.24" y="2281.66" width="2622.81" height="5.50661" transform="rotate(-59.5537 -554.24 2281.66)" fill="#9BCD5B" fill-opacity="0.27"/>
<rect x="-544.746" y="2287.24" width="2622.81" height="5.50661" transform="rotate(-59.5537 -544.746 2287.24)" fill="#9BCD5B" fill-opacity="0.27"/>
<rect x="-535.254" y="2292.82" width="2622.81" height="5.50661" transform="rotate(-59.5537 -535.254 2292.82)" fill="#9BCD5B" fill-opacity="0.27"/>
<rect x="-525.761" y="2298.4" width="2622.81" height="5.50661" transform="rotate(-59.5537 -525.761 2298.4)" fill="#9BCD5B" fill-opacity="0.27"/>
<rect x="-516.268" y="2303.98" width="2622.81" height="5.50661" transform="rotate(-59.5537 -516.268 2303.98)" fill="#9BCD5B" fill-opacity="0.27"/>
<rect x="-506.775" y="2309.56" width="2622.81" height="5.50661" transform="rotate(-59.5537 -506.775 2309.56)" fill="#9BCD5B" fill-opacity="0.27"/>
<rect x="-497.282" y="2315.14" width="2622.81" height="5.50661" transform="rotate(-59.5537 -497.282 2315.14)" fill="#9BCD5B" fill-opacity="0.27"/>
<rect x="-487.789" y="2320.72" width="2622.81" height="5.50661" transform="rotate(-59.5537 -487.789 2320.72)" fill="#9BCD5B" fill-opacity="0.27"/>
<rect x="-478.296" y="2326.3" width="2622.81" height="5.50661" transform="rotate(-59.5537 -478.296 2326.3)" fill="#9BCD5B" fill-opacity="0.27"/>
<rect x="-468.803" y="2331.88" width="2622.81" height="5.50661" transform="rotate(-59.5537 -468.803 2331.88)" fill="#9BCD5B" fill-opacity="0.27"/>
<rect x="-459.31" y="2337.46" width="2622.81" height="5.50661" transform="rotate(-59.5537 -459.31 2337.46)" fill="#9BCD5B" fill-opacity="0.27"/>
<rect x="-449.817" y="2343.04" width="2622.81" height="5.50661" transform="rotate(-59.5537 -449.817 2343.04)" fill="#9BCD5B" fill-opacity="0.27"/>
<rect x="-440.324" y="2348.62" width="2622.81" height="5.50661" transform="rotate(-59.5537 -440.324 2348.62)" fill="#9BCD5B" fill-opacity="0.27"/>
<rect x="-430.831" y="2354.2" width="2622.81" height="5.50661" transform="rotate(-59.5537 -430.831 2354.2)" fill="#9BCD5B" fill-opacity="0.27"/>
<rect x="-421.338" y="2359.78" width="2622.81" height="5.50661" transform="rotate(-59.5537 -421.338 2359.78)" fill="#9BCD5B" fill-opacity="0.27"/>
<rect x="-411.845" y="2365.36" width="2622.81" height="5.50661" transform="rotate(-59.5537 -411.845 2365.36)" fill="#9BCD5B" fill-opacity="0.27"/>
<rect x="-402.353" y="2370.94" width="2622.81" height="5.50661" transform="rotate(-59.5537 -402.353 2370.94)" fill="#9BCD5B" fill-opacity="0.27"/>
<rect x="-392.86" y="2376.52" width="2622.81" height="5.50661" transform="rotate(-59.5537 -392.86 2376.52)" fill="#9BCD5B" fill-opacity="0.27"/>
<rect x="-383.367" y="2382.1" width="2622.81" height="5.50661" transform="rotate(-59.5537 -383.367 2382.1)" fill="#9BCD5B" fill-opacity="0.27"/>
<rect x="-373.874" y="2387.68" width="2622.81" height="5.50661" transform="rotate(-59.5537 -373.874 2387.68)" fill="#9BCD5B" fill-opacity="0.27"/>
<rect x="-364.381" y="2393.26" width="2622.81" height="5.50661" transform="rotate(-59.5537 -364.381 2393.26)" fill="#9BCD5B" fill-opacity="0.27"/>
<rect x="-354.888" y="2398.84" width="2622.81" height="5.50661" transform="rotate(-59.5537 -354.888 2398.84)" fill="#9BCD5B" fill-opacity="0.27"/>
<rect x="-345.395" y="2404.42" width="2622.81" height="5.50661" transform="rotate(-59.5537 -345.395 2404.42)" fill="#9BCD5B" fill-opacity="0.27"/>
<rect x="-335.902" y="2410" width="2622.81" height="5.50661" transform="rotate(-59.5537 -335.902 2410)" fill="#9BCD5B" fill-opacity="0.27"/>
<rect x="-326.409" y="2415.58" width="2622.81" height="5.50661" transform="rotate(-59.5537 -326.409 2415.58)" fill="#9BCD5B" fill-opacity="0.27"/>
<rect x="-316.916" y="2421.16" width="2622.81" height="5.50661" transform="rotate(-59.5537 -316.916 2421.16)" fill="#9BCD5B" fill-opacity="0.27"/>
<rect x="-307.424" y="2426.74" width="2622.81" height="5.50661" transform="rotate(-59.5537 -307.424 2426.74)" fill="#9BCD5B" fill-opacity="0.27"/>
<rect x="-297.93" y="2432.32" width="2622.81" height="5.50661" transform="rotate(-59.5537 -297.93 2432.32)" fill="#9BCD5B" fill-opacity="0.27"/>
<rect x="-288.438" y="2437.89" width="2622.81" height="5.50661" transform="rotate(-59.5537 -288.438 2437.89)" fill="#9BCD5B" fill-opacity="0.27"/>
<rect x="-278.944" y="2443.47" width="2622.81" height="5.50661" transform="rotate(-59.5537 -278.944 2443.47)" fill="#9BCD5B" fill-opacity="0.27"/>
<rect x="-269.452" y="2449.05" width="2622.81" height="5.50661" transform="rotate(-59.5537 -269.452 2449.05)" fill="#9BCD5B" fill-opacity="0.27"/>
<rect x="-259.959" y="2454.63" width="2622.81" height="5.50661" transform="rotate(-59.5537 -259.959 2454.63)" fill="#9BCD5B" fill-opacity="0.27"/>
<rect x="-250.466" y="2460.21" width="2622.81" height="5.50661" transform="rotate(-59.5537 -250.466 2460.21)" fill="#9BCD5B" fill-opacity="0.27"/>
<rect x="-240.973" y="2465.79" width="2622.81" height="5.50661" transform="rotate(-59.5537 -240.973 2465.79)" fill="#9BCD5B" fill-opacity="0.27"/>
<rect x="-231.48" y="2471.37" width="2622.81" height="5.50661" transform="rotate(-59.5537 -231.48 2471.37)" fill="#9BCD5B" fill-opacity="0.27"/>
<rect x="-221.987" y="2476.95" width="2622.81" height="5.50661" transform="rotate(-59.5537 -221.987 2476.95)" fill="#9BCD5B" fill-opacity="0.27"/>
<rect x="-212.494" y="2482.53" width="2622.81" height="5.50661" transform="rotate(-59.5537 -212.494 2482.53)" fill="#9BCD5B" fill-opacity="0.27"/>
<rect x="-203.001" y="2488.11" width="2622.81" height="5.50661" transform="rotate(-59.5537 -203.001 2488.11)" fill="#9BCD5B" fill-opacity="0.27"/>
<rect x="-193.508" y="2493.69" width="2622.81" height="5.50661" transform="rotate(-59.5537 -193.508 2493.69)" fill="#9BCD5B" fill-opacity="0.27"/>
<rect x="-184.016" y="2499.27" width="2622.81" height="5.50661" transform="rotate(-59.5537 -184.016 2499.27)" fill="#9BCD5B" fill-opacity="0.27"/>
<rect x="-174.522" y="2504.85" width="2622.81" height="5.50661" transform="rotate(-59.5537 -174.522 2504.85)" fill="#9BCD5B" fill-opacity="0.27"/>
<rect x="-165.029" y="2510.43" width="2622.81" height="5.50661" transform="rotate(-59.5537 -165.029 2510.43)" fill="#9BCD5B" fill-opacity="0.27"/>
<rect x="-155.537" y="2516.01" width="2622.81" height="5.50661" transform="rotate(-59.5537 -155.537 2516.01)" fill="#9BCD5B" fill-opacity="0.27"/>
<rect x="-146.044" y="2521.59" width="2622.81" height="5.50661" transform="rotate(-59.5537 -146.044 2521.59)" fill="#9BCD5B" fill-opacity="0.27"/>
<rect x="-136.551" y="2527.17" width="2622.81" height="5.50661" transform="rotate(-59.5537 -136.551 2527.17)" fill="#9BCD5B" fill-opacity="0.27"/>
<rect x="-127.058" y="2532.75" width="2622.81" height="5.50661" transform="rotate(-59.5537 -127.058 2532.75)" fill="#9BCD5B" fill-opacity="0.27"/>
<rect x="-117.565" y="2538.33" width="2622.81" height="5.50661" transform="rotate(-59.5537 -117.565 2538.33)" fill="#9BCD5B" fill-opacity="0.27"/>
<rect x="-108.072" y="2543.91" width="2622.81" height="5.50661" transform="rotate(-59.5537 -108.072 2543.91)" fill="#9BCD5B" fill-opacity="0.27"/>
<rect x="-98.5789" y="2549.49" width="2622.81" height="5.50661" transform="rotate(-59.5537 -98.5789 2549.49)" fill="#9BCD5B" fill-opacity="0.27"/>
<rect x="-89.0862" y="2555.07" width="2622.81" height="5.50661" transform="rotate(-59.5537 -89.0862 2555.07)" fill="#9BCD5B" fill-opacity="0.27"/>
<rect x="-79.5933" y="2560.65" width="2622.81" height="5.50661" transform="rotate(-59.5537 -79.5933 2560.65)" fill="#9BCD5B" fill-opacity="0.27"/>
<rect x="-70.1001" y="2566.23" width="2622.81" height="5.50661" transform="rotate(-59.5537 -70.1001 2566.23)" fill="#9BCD5B" fill-opacity="0.27"/>
<rect x="-60.6074" y="2571.81" width="2622.81" height="5.50661" transform="rotate(-59.5537 -60.6074 2571.81)" fill="#9BCD5B" fill-opacity="0.27"/>
<rect x="-51.1143" y="2577.39" width="2622.81" height="5.50661" transform="rotate(-59.5537 -51.1143 2577.39)" fill="#9BCD5B" fill-opacity="0.27"/>
<rect x="-41.6216" y="2582.97" width="2622.81" height="5.50661" transform="rotate(-59.5537 -41.6216 2582.97)" fill="#9BCD5B" fill-opacity="0.27"/>
<rect x="-32.1287" y="2588.55" width="2622.81" height="5.50661" transform="rotate(-59.5537 -32.1287 2588.55)" fill="#9BCD5B" fill-opacity="0.27"/>
<rect x="-22.636" y="2594.13" width="2622.81" height="5.50661" transform="rotate(-59.5537 -22.636 2594.13)" fill="#9BCD5B" fill-opacity="0.27"/>
<rect x="-13.1426" y="2599.71" width="2622.81" height="5.50661" transform="rotate(-59.5537 -13.1426 2599.71)" fill="#9BCD5B" fill-opacity="0.27"/>
<rect x="-3.6499" y="2605.29" width="2622.81" height="5.50661" transform="rotate(-59.5537 -3.6499 2605.29)" fill="#9BCD5B" fill-opacity="0.27"/>
<rect x="5.84302" y="2610.87" width="2622.81" height="5.50661" transform="rotate(-59.5537 5.84302 2610.87)" fill="#9BCD5B" fill-opacity="0.27"/>
<rect x="15.3362" y="2616.45" width="2622.81" height="5.50661" transform="rotate(-59.5537 15.3362 2616.45)" fill="#9BCD5B" fill-opacity="0.27"/>
<rect x="24.8289" y="2622.03" width="2622.81" height="5.50661" transform="rotate(-59.5537 24.8289 2622.03)" fill="#9BCD5B" fill-opacity="0.27"/>
<rect x="34.322" y="2627.61" width="2622.81" height="5.50661" transform="rotate(-59.5537 34.322 2627.61)" fill="#9BCD5B" fill-opacity="0.27"/>
<rect x="43.8147" y="2633.19" width="2622.81" height="5.50661" transform="rotate(-59.5537 43.8147 2633.19)" fill="#9BCD5B" fill-opacity="0.27"/>
<rect x="53.3076" y="2638.77" width="2622.81" height="5.50661" transform="rotate(-59.5537 53.3076 2638.77)" fill="#9BCD5B" fill-opacity="0.27"/>
<rect x="62.8005" y="2644.35" width="2622.81" height="5.50661" transform="rotate(-59.5537 62.8005 2644.35)" fill="#9BCD5B" fill-opacity="0.27"/>
<rect x="72.2935" y="2649.93" width="2622.81" height="5.50661" transform="rotate(-59.5537 72.2935 2649.93)" fill="#9BCD5B" fill-opacity="0.27"/>
<rect x="81.7866" y="2655.51" width="2622.81" height="5.50661" transform="rotate(-59.5537 81.7866 2655.51)" fill="#9BCD5B" fill-opacity="0.27"/>
<rect x="91.2795" y="2661.09" width="2622.81" height="5.50661" transform="rotate(-59.5537 91.2795 2661.09)" fill="#9BCD5B" fill-opacity="0.27"/>
<rect x="100.772" y="2666.67" width="2622.81" height="5.50661" transform="rotate(-59.5537 100.772 2666.67)" fill="#9BCD5B" fill-opacity="0.27"/>
<rect x="110.265" y="2672.25" width="2622.81" height="5.50661" transform="rotate(-59.5537 110.265 2672.25)" fill="#9BCD5B" fill-opacity="0.27"/>
<rect x="119.758" y="2677.83" width="2622.81" height="5.50661" transform="rotate(-59.5537 119.758 2677.83)" fill="#9BCD5B" fill-opacity="0.27"/>
<rect x="129.251" y="2683.41" width="2622.81" height="5.50661" transform="rotate(-59.5537 129.251 2683.41)" fill="#9BCD5B" fill-opacity="0.27"/>
<rect x="138.744" y="2688.99" width="2622.81" height="5.50661" transform="rotate(-59.5537 138.744 2688.99)" fill="#9BCD5B" fill-opacity="0.27"/>
<rect x="148.237" y="2694.57" width="2622.81" height="5.50661" transform="rotate(-59.5537 148.237 2694.57)" fill="#9BCD5B" fill-opacity="0.27"/>
<rect x="157.73" y="2700.14" width="2622.81" height="5.50661" transform="rotate(-59.5537 157.73 2700.14)" fill="#9BCD5B" fill-opacity="0.27"/>
<rect x="167.223" y="2705.72" width="2622.81" height="5.50661" transform="rotate(-59.5537 167.223 2705.72)" fill="#9BCD5B" fill-opacity="0.27"/>
<rect x="176.716" y="2711.3" width="2622.81" height="5.50661" transform="rotate(-59.5537 176.716 2711.3)" fill="#9BCD5B" fill-opacity="0.27"/>
<rect x="186.208" y="2716.88" width="2622.81" height="5.50661" transform="rotate(-59.5537 186.208 2716.88)" fill="#9BCD5B" fill-opacity="0.27"/>
<rect x="195.702" y="2722.46" width="2622.81" height="5.50661" transform="rotate(-59.5537 195.702 2722.46)" fill="#9BCD5B" fill-opacity="0.27"/>
<rect x="205.194" y="2728.04" width="2622.81" height="5.50661" transform="rotate(-59.5537 205.194 2728.04)" fill="#9BCD5B" fill-opacity="0.27"/>
<rect x="214.688" y="2733.62" width="2622.81" height="5.50661" transform="rotate(-59.5537 214.688 2733.62)" fill="#9BCD5B" fill-opacity="0.27"/>
<rect x="224.18" y="2739.2" width="2622.81" height="5.50661" transform="rotate(-59.5537 224.18 2739.2)" fill="#9BCD5B" fill-opacity="0.27"/>
<rect x="233.673" y="2744.78" width="2622.81" height="5.50661" transform="rotate(-59.5537 233.673 2744.78)" fill="#9BCD5B" fill-opacity="0.27"/>
<rect x="243.166" y="2750.36" width="2622.81" height="5.50661" transform="rotate(-59.5537 243.166 2750.36)" fill="#9BCD5B" fill-opacity="0.27"/>
<rect x="252.659" y="2755.94" width="2622.81" height="5.50661" transform="rotate(-59.5537 252.659 2755.94)" fill="#9BCD5B" fill-opacity="0.27"/>
<rect x="262.152" y="2761.52" width="2622.81" height="5.50661" transform="rotate(-59.5537 262.152 2761.52)" fill="#9BCD5B" fill-opacity="0.27"/>
<rect x="271.645" y="2767.1" width="2622.81" height="5.50661" transform="rotate(-59.5537 271.645 2767.1)" fill="#9BCD5B" fill-opacity="0.27"/>
<rect x="281.138" y="2772.68" width="2622.81" height="5.50661" transform="rotate(-59.5537 281.138 2772.68)" fill="#9BCD5B" fill-opacity="0.27"/>
<rect x="290.631" y="2778.26" width="2622.81" height="5.50661" transform="rotate(-59.5537 290.631 2778.26)" fill="#9BCD5B" fill-opacity="0.27"/>
<rect x="300.124" y="2783.84" width="2622.81" height="5.50661" transform="rotate(-59.5537 300.124 2783.84)" fill="#9BCD5B" fill-opacity="0.27"/>
<rect x="309.616" y="2789.42" width="2622.81" height="5.50661" transform="rotate(-59.5537 309.616 2789.42)" fill="#9BCD5B" fill-opacity="0.27"/>
<rect x="319.109" y="2795" width="2622.81" height="5.50661" transform="rotate(-59.5537 319.109 2795)" fill="#9BCD5B" fill-opacity="0.27"/>
<rect x="328.603" y="2800.58" width="2622.81" height="5.50661" transform="rotate(-59.5537 328.603 2800.58)" fill="#9BCD5B" fill-opacity="0.27"/>
<rect x="338.095" y="2806.16" width="2622.81" height="5.50661" transform="rotate(-59.5537 338.095 2806.16)" fill="#9BCD5B" fill-opacity="0.27"/>
<rect x="347.589" y="2811.74" width="2622.81" height="5.50661" transform="rotate(-59.5537 347.589 2811.74)" fill="#9BCD5B" fill-opacity="0.27"/>
<rect x="357.081" y="2817.32" width="2622.81" height="5.50661" transform="rotate(-59.5537 357.081 2817.32)" fill="#9BCD5B" fill-opacity="0.27"/>
<rect x="366.574" y="2822.9" width="2622.81" height="5.50661" transform="rotate(-59.5537 366.574 2822.9)" fill="#9BCD5B" fill-opacity="0.27"/>
<rect x="376.067" y="2828.48" width="2622.81" height="5.50661" transform="rotate(-59.5537 376.067 2828.48)" fill="#9BCD5B" fill-opacity="0.27"/>
<rect x="385.56" y="2834.06" width="2622.81" height="5.50661" transform="rotate(-59.5537 385.56 2834.06)" fill="#9BCD5B" fill-opacity="0.27"/>
<rect x="395.053" y="2839.64" width="2622.81" height="5.50661" transform="rotate(-59.5537 395.053 2839.64)" fill="#9BCD5B" fill-opacity="0.27"/>
<rect x="404.546" y="2845.22" width="2622.81" height="5.50661" transform="rotate(-59.5537 404.546 2845.22)" fill="#9BCD5B" fill-opacity="0.27"/>
<rect x="414.039" y="2850.8" width="2622.81" height="5.50661" transform="rotate(-59.5537 414.039 2850.8)" fill="#9BCD5B" fill-opacity="0.27"/>
<rect x="423.532" y="2856.38" width="2622.81" height="5.50661" transform="rotate(-59.5537 423.532 2856.38)" fill="#9BCD5B" fill-opacity="0.27"/>
<rect x="433.025" y="2861.96" width="2622.81" height="5.50661" transform="rotate(-59.5537 433.025 2861.96)" fill="#9BCD5B" fill-opacity="0.27"/>
<rect x="442.517" y="2867.54" width="2622.81" height="5.50661" transform="rotate(-59.5537 442.517 2867.54)" fill="#9BCD5B" fill-opacity="0.27"/>
<rect x="452.01" y="2873.12" width="2622.81" height="5.50661" transform="rotate(-59.5537 452.01 2873.12)" fill="#9BCD5B" fill-opacity="0.27"/>
<rect x="461.503" y="2878.7" width="2622.81" height="5.50661" transform="rotate(-59.5537 461.503 2878.7)" fill="#9BCD5B" fill-opacity="0.27"/>
<rect x="470.996" y="2884.28" width="2622.81" height="5.50661" transform="rotate(-59.5537 470.996 2884.28)" fill="#9BCD5B" fill-opacity="0.27"/>
<rect x="480.489" y="2889.86" width="2622.81" height="5.50661" transform="rotate(-59.5537 480.489 2889.86)" fill="#9BCD5B" fill-opacity="0.27"/>
<rect x="489.982" y="2895.44" width="2622.81" height="5.50661" transform="rotate(-59.5537 489.982 2895.44)" fill="#9BCD5B" fill-opacity="0.27"/>
</g>
<rect x="0.5" y="0.5" width="699" height="2564" stroke="black"/>
<defs>
<clipPath id="clip0">
</clipPath>
</defs>
</svg>
