<svg width="1224" height="2565" viewBox="0 0 1224 2565" fill="none" xmlns="http://www.w3.org/2000/svg">
<g clip-path="url(#clip0)">
<rect x="2004.16" y="2428.88" width="2871.09" height="6.6431" transform="rotate(-180 2004.16 2428.88)" fill="#9BCD5B" fill-opacity="0.27"/>
<rect x="2004.16" y="2415.59" width="2871.09" height="6.6431" transform="rotate(-180 2004.16 2415.59)" fill="#9BCD5B" fill-opacity="0.27"/>
<rect x="2004.16" y="2402.31" width="2871.09" height="6.6431" transform="rotate(-180 2004.16 2402.31)" fill="#9BCD5B" fill-opacity="0.27"/>
<rect x="2004.16" y="2389.02" width="2871.09" height="6.6431" transform="rotate(-180 2004.16 2389.02)" fill="#9BCD5B" fill-opacity="0.27"/>
<rect x="2004.16" y="2375.74" width="2871.09" height="6.6431" transform="rotate(-180 2004.16 2375.74)" fill="#9BCD5B" fill-opacity="0.27"/>
<rect x="2004.16" y="2362.46" width="2871.09" height="6.6431" transform="rotate(-180 2004.16 2362.46)" fill="#9BCD5B" fill-opacity="0.27"/>
<rect x="2004.16" y="2349.17" width="2871.09" height="6.6431" transform="rotate(-180 2004.16 2349.17)" fill="#9BCD5B" fill-opacity="0.27"/>
<rect x="2004.16" y="2335.89" width="2871.09" height="6.6431" transform="rotate(-180 2004.16 2335.89)" fill="#9BCD5B" fill-opacity="0.27"/>
<rect x="2004.16" y="2322.6" width="2871.09" height="6.6431" transform="rotate(-180 2004.16 2322.6)" fill="#9BCD5B" fill-opacity="0.27"/>
<rect x="2004.16" y="2309.32" width="2871.09" height="6.6431" transform="rotate(-180 2004.16 2309.32)" fill="#9BCD5B" fill-opacity="0.27"/>
<rect x="2004.16" y="2296.04" width="2871.09" height="6.6431" transform="rotate(-180 2004.16 2296.04)" fill="#9BCD5B" fill-opacity="0.27"/>
<rect x="2004.16" y="2282.75" width="2871.09" height="6.6431" transform="rotate(-180 2004.16 2282.75)" fill="#9BCD5B" fill-opacity="0.27"/>
<rect x="2004.16" y="2269.47" width="2871.09" height="6.6431" transform="rotate(-180 2004.16 2269.47)" fill="#9BCD5B" fill-opacity="0.27"/>
<rect x="2004.16" y="2256.18" width="2871.09" height="6.6431" transform="rotate(-180 2004.16 2256.18)" fill="#9BCD5B" fill-opacity="0.27"/>
<rect x="2004.16" y="2242.9" width="2871.09" height="6.6431" transform="rotate(-180 2004.16 2242.9)" fill="#9BCD5B" fill-opacity="0.27"/>
<rect x="2004.16" y="2229.62" width="2871.09" height="6.6431" transform="rotate(-180 2004.16 2229.62)" fill="#9BCD5B" fill-opacity="0.27"/>
<rect x="2004.16" y="2216.33" width="2871.09" height="6.6431" transform="rotate(-180 2004.16 2216.33)" fill="#9BCD5B" fill-opacity="0.27"/>
<rect x="2004.16" y="2203.05" width="2871.09" height="6.6431" transform="rotate(-180 2004.16 2203.05)" fill="#9BCD5B" fill-opacity="0.27"/>
<rect x="2004.16" y="2189.76" width="2871.09" height="6.6431" transform="rotate(-180 2004.16 2189.76)" fill="#9BCD5B" fill-opacity="0.27"/>
<rect x="2004.16" y="2176.48" width="2871.09" height="6.6431" transform="rotate(-180 2004.16 2176.48)" fill="#9BCD5B" fill-opacity="0.27"/>
<rect x="2004.16" y="2163.2" width="2871.09" height="6.6431" transform="rotate(-180 2004.16 2163.2)" fill="#9BCD5B" fill-opacity="0.27"/>
<rect x="2004.16" y="2149.91" width="2871.09" height="6.6431" transform="rotate(-180 2004.16 2149.91)" fill="#9BCD5B" fill-opacity="0.27"/>
<rect x="2004.16" y="2136.63" width="2871.09" height="6.6431" transform="rotate(-180 2004.16 2136.63)" fill="#9BCD5B" fill-opacity="0.27"/>
<rect x="2004.16" y="2123.34" width="2871.09" height="6.6431" transform="rotate(-180 2004.16 2123.34)" fill="#9BCD5B" fill-opacity="0.27"/>
<rect x="2004.16" y="2110.06" width="2871.09" height="6.6431" transform="rotate(-180 2004.16 2110.06)" fill="#9BCD5B" fill-opacity="0.27"/>
<rect x="2004.16" y="2096.78" width="2871.09" height="6.6431" transform="rotate(-180 2004.16 2096.78)" fill="#9BCD5B" fill-opacity="0.27"/>
<rect x="2004.16" y="2083.49" width="2871.09" height="6.6431" transform="rotate(-180 2004.16 2083.49)" fill="#9BCD5B" fill-opacity="0.27"/>
<rect x="2004.16" y="2070.21" width="2871.09" height="6.6431" transform="rotate(-180 2004.16 2070.21)" fill="#9BCD5B" fill-opacity="0.27"/>
<rect x="2004.16" y="2056.92" width="2871.09" height="6.6431" transform="rotate(-180 2004.16 2056.92)" fill="#9BCD5B" fill-opacity="0.27"/>
<rect x="2004.16" y="2043.64" width="2871.09" height="6.6431" transform="rotate(-180 2004.16 2043.64)" fill="#9BCD5B" fill-opacity="0.27"/>
<rect x="2004.16" y="2030.36" width="2871.09" height="6.6431" transform="rotate(-180 2004.16 2030.36)" fill="#9BCD5B" fill-opacity="0.27"/>
<rect x="2004.16" y="2017.07" width="2871.09" height="6.6431" transform="rotate(-180 2004.16 2017.07)" fill="#9BCD5B" fill-opacity="0.27"/>
<rect x="2004.16" y="2003.79" width="2871.09" height="6.6431" transform="rotate(-180 2004.16 2003.79)" fill="#9BCD5B" fill-opacity="0.27"/>
<rect x="2004.16" y="1990.51" width="2871.09" height="6.6431" transform="rotate(-180 2004.16 1990.51)" fill="#9BCD5B" fill-opacity="0.27"/>
<rect x="2004.16" y="1977.22" width="2871.09" height="6.6431" transform="rotate(-180 2004.16 1977.22)" fill="#9BCD5B" fill-opacity="0.27"/>
<rect x="2004.16" y="1963.94" width="2871.09" height="6.6431" transform="rotate(-180 2004.16 1963.94)" fill="#9BCD5B" fill-opacity="0.27"/>
<rect x="2004.16" y="1950.65" width="2871.09" height="6.6431" transform="rotate(-180 2004.16 1950.65)" fill="#9BCD5B" fill-opacity="0.27"/>
<rect x="2004.16" y="1937.37" width="2871.09" height="6.6431" transform="rotate(-180 2004.16 1937.37)" fill="#9BCD5B" fill-opacity="0.27"/>
<rect x="2004.16" y="1924.09" width="2871.09" height="6.6431" transform="rotate(-180 2004.16 1924.09)" fill="#9BCD5B" fill-opacity="0.27"/>
<rect x="2004.16" y="1910.8" width="2871.09" height="6.6431" transform="rotate(-180 2004.16 1910.8)" fill="#9BCD5B" fill-opacity="0.27"/>
<rect x="2004.16" y="1897.52" width="2871.09" height="6.6431" transform="rotate(-180 2004.16 1897.52)" fill="#9BCD5B" fill-opacity="0.27"/>
<rect x="2004.16" y="1884.23" width="2871.09" height="6.6431" transform="rotate(-180 2004.16 1884.23)" fill="#9BCD5B" fill-opacity="0.27"/>
<rect x="2004.16" y="1870.95" width="2871.09" height="6.6431" transform="rotate(-180 2004.16 1870.95)" fill="#9BCD5B" fill-opacity="0.27"/>
<rect x="2004.16" y="1857.67" width="2871.09" height="6.6431" transform="rotate(-180 2004.16 1857.67)" fill="#9BCD5B" fill-opacity="0.27"/>
<rect x="2004.16" y="1844.38" width="2871.09" height="6.6431" transform="rotate(-180 2004.16 1844.38)" fill="#9BCD5B" fill-opacity="0.27"/>
<rect x="2004.16" y="1831.1" width="2871.09" height="6.6431" transform="rotate(-180 2004.16 1831.1)" fill="#9BCD5B" fill-opacity="0.27"/>
<rect x="2004.16" y="1817.81" width="2871.09" height="6.6431" transform="rotate(-180 2004.16 1817.81)" fill="#9BCD5B" fill-opacity="0.27"/>
<rect x="2004.16" y="1804.53" width="2871.09" height="6.6431" transform="rotate(-180 2004.16 1804.53)" fill="#9BCD5B" fill-opacity="0.27"/>
<rect x="2004.16" y="1791.25" width="2871.09" height="6.6431" transform="rotate(-180 2004.16 1791.25)" fill="#9BCD5B" fill-opacity="0.27"/>
<rect x="2004.16" y="1777.96" width="2871.09" height="6.6431" transform="rotate(-180 2004.16 1777.96)" fill="#9BCD5B" fill-opacity="0.27"/>
<rect x="2004.16" y="1764.68" width="2871.09" height="6.6431" transform="rotate(-180 2004.16 1764.68)" fill="#9BCD5B" fill-opacity="0.27"/>
<rect x="2004.16" y="1751.39" width="2871.09" height="6.6431" transform="rotate(-180 2004.16 1751.39)" fill="#9BCD5B" fill-opacity="0.27"/>
<rect x="2004.16" y="1738.11" width="2871.09" height="6.6431" transform="rotate(-180 2004.16 1738.11)" fill="#9BCD5B" fill-opacity="0.27"/>
<rect x="2004.16" y="1724.83" width="2871.09" height="6.6431" transform="rotate(-180 2004.16 1724.83)" fill="#9BCD5B" fill-opacity="0.27"/>
<rect x="2004.16" y="1711.54" width="2871.09" height="6.6431" transform="rotate(-180 2004.16 1711.54)" fill="#9BCD5B" fill-opacity="0.27"/>
<rect x="2004.16" y="1698.26" width="2871.09" height="6.6431" transform="rotate(-180 2004.16 1698.26)" fill="#9BCD5B" fill-opacity="0.27"/>
<rect x="2004.16" y="1684.97" width="2871.09" height="6.6431" transform="rotate(-180 2004.16 1684.97)" fill="#9BCD5B" fill-opacity="0.27"/>
<rect x="2004.16" y="1671.69" width="2871.09" height="6.6431" transform="rotate(-180 2004.16 1671.69)" fill="#9BCD5B" fill-opacity="0.27"/>
<rect x="2004.16" y="1658.41" width="2871.09" height="6.6431" transform="rotate(-180 2004.16 1658.41)" fill="#9BCD5B" fill-opacity="0.27"/>
<rect x="2004.16" y="1645.12" width="2871.09" height="6.6431" transform="rotate(-180 2004.16 1645.12)" fill="#9BCD5B" fill-opacity="0.27"/>
<rect x="2004.16" y="1631.84" width="2871.09" height="6.6431" transform="rotate(-180 2004.16 1631.84)" fill="#9BCD5B" fill-opacity="0.27"/>
<rect x="2004.16" y="1618.55" width="2871.09" height="6.6431" transform="rotate(-180 2004.16 1618.55)" fill="#9BCD5B" fill-opacity="0.27"/>
<rect x="2004.16" y="1605.27" width="2871.09" height="6.6431" transform="rotate(-180 2004.16 1605.27)" fill="#9BCD5B" fill-opacity="0.27"/>
<rect x="2004.16" y="1591.99" width="2871.09" height="6.6431" transform="rotate(-180 2004.16 1591.99)" fill="#9BCD5B" fill-opacity="0.27"/>
<rect x="2004.16" y="1578.7" width="2871.09" height="6.6431" transform="rotate(-180 2004.16 1578.7)" fill="#9BCD5B" fill-opacity="0.27"/>
<rect x="2004.16" y="1565.42" width="2871.09" height="6.6431" transform="rotate(-180 2004.16 1565.42)" fill="#9BCD5B" fill-opacity="0.27"/>
<rect x="2004.16" y="1552.14" width="2871.09" height="6.6431" transform="rotate(-180 2004.16 1552.14)" fill="#9BCD5B" fill-opacity="0.27"/>
<rect x="2004.16" y="1538.85" width="2871.09" height="6.6431" transform="rotate(-180 2004.16 1538.85)" fill="#9BCD5B" fill-opacity="0.27"/>
<rect x="2004.16" y="1525.57" width="2871.09" height="6.6431" transform="rotate(-180 2004.16 1525.57)" fill="#9BCD5B" fill-opacity="0.27"/>
<rect x="2004.16" y="1512.28" width="2871.09" height="6.6431" transform="rotate(-180 2004.16 1512.28)" fill="#9BCD5B" fill-opacity="0.27"/>
<rect x="2004.16" y="1499" width="2871.09" height="6.6431" transform="rotate(-180 2004.16 1499)" fill="#9BCD5B" fill-opacity="0.27"/>
<rect x="2004.16" y="1485.72" width="2871.09" height="6.6431" transform="rotate(-180 2004.16 1485.72)" fill="#9BCD5B" fill-opacity="0.27"/>
<rect x="2004.16" y="1472.43" width="2871.09" height="6.6431" transform="rotate(-180 2004.16 1472.43)" fill="#9BCD5B" fill-opacity="0.27"/>
<rect x="2004.16" y="1459.15" width="2871.09" height="6.6431" transform="rotate(-180 2004.16 1459.15)" fill="#9BCD5B" fill-opacity="0.27"/>
<rect x="2004.16" y="1445.86" width="2871.09" height="6.6431" transform="rotate(-180 2004.16 1445.86)" fill="#9BCD5B" fill-opacity="0.27"/>
<rect x="2004.16" y="1432.58" width="2871.09" height="6.6431" transform="rotate(-180 2004.16 1432.58)" fill="#9BCD5B" fill-opacity="0.27"/>
<rect x="2004.16" y="1419.3" width="2871.09" height="6.6431" transform="rotate(-180 2004.16 1419.3)" fill="#9BCD5B" fill-opacity="0.27"/>
<rect x="2004.16" y="1406.01" width="2871.09" height="6.6431" transform="rotate(-180 2004.16 1406.01)" fill="#9BCD5B" fill-opacity="0.27"/>
<rect x="2004.16" y="1392.73" width="2871.09" height="6.6431" transform="rotate(-180 2004.16 1392.73)" fill="#9BCD5B" fill-opacity="0.27"/>
<rect x="2004.16" y="1379.44" width="2871.09" height="6.6431" transform="rotate(-180 2004.16 1379.44)" fill="#9BCD5B" fill-opacity="0.27"/>
<rect x="2004.16" y="1366.16" width="2871.09" height="6.6431" transform="rotate(-180 2004.16 1366.16)" fill="#9BCD5B" fill-opacity="0.27"/>
<rect x="2004.16" y="1352.88" width="2871.09" height="6.6431" transform="rotate(-180 2004.16 1352.88)" fill="#9BCD5B" fill-opacity="0.27"/>
<rect x="2004.16" y="1339.59" width="2871.09" height="6.6431" transform="rotate(-180 2004.16 1339.59)" fill="#9BCD5B" fill-opacity="0.27"/>
<rect x="2004.16" y="1326.31" width="2871.09" height="6.6431" transform="rotate(-180 2004.16 1326.31)" fill="#9BCD5B" fill-opacity="0.27"/>
<rect x="2004.16" y="1313.02" width="2871.09" height="6.6431" transform="rotate(-180 2004.16 1313.02)" fill="#9BCD5B" fill-opacity="0.27"/>
<rect x="2004.16" y="1299.74" width="2871.09" height="6.6431" transform="rotate(-180 2004.16 1299.74)" fill="#9BCD5B" fill-opacity="0.27"/>
<rect x="2004.16" y="1286.46" width="2871.09" height="6.6431" transform="rotate(-180 2004.16 1286.46)" fill="#9BCD5B" fill-opacity="0.27"/>
<rect x="2004.16" y="1273.17" width="2871.09" height="6.6431" transform="rotate(-180 2004.16 1273.17)" fill="#9BCD5B" fill-opacity="0.27"/>
<rect x="2004.16" y="1259.89" width="2871.09" height="6.6431" transform="rotate(-180 2004.16 1259.89)" fill="#9BCD5B" fill-opacity="0.27"/>
<rect x="2004.16" y="1246.6" width="2871.09" height="6.6431" transform="rotate(-180 2004.16 1246.6)" fill="#9BCD5B" fill-opacity="0.27"/>
<rect x="2004.16" y="1233.32" width="2871.09" height="6.6431" transform="rotate(-180 2004.16 1233.32)" fill="#9BCD5B" fill-opacity="0.27"/>
<rect x="2004.16" y="1220.04" width="2871.09" height="6.6431" transform="rotate(-180 2004.16 1220.04)" fill="#9BCD5B" fill-opacity="0.27"/>
<rect x="2004.16" y="1206.75" width="2871.09" height="6.6431" transform="rotate(-180 2004.16 1206.75)" fill="#9BCD5B" fill-opacity="0.27"/>
<rect x="2004.16" y="1193.47" width="2871.09" height="6.6431" transform="rotate(-180 2004.16 1193.47)" fill="#9BCD5B" fill-opacity="0.27"/>
<rect x="2004.16" y="1180.19" width="2871.09" height="6.6431" transform="rotate(-180 2004.16 1180.19)" fill="#9BCD5B" fill-opacity="0.27"/>
<rect x="2004.16" y="1166.9" width="2871.09" height="6.6431" transform="rotate(-180 2004.16 1166.9)" fill="#9BCD5B" fill-opacity="0.27"/>
<rect x="2004.16" y="1153.62" width="2871.09" height="6.6431" transform="rotate(-180 2004.16 1153.62)" fill="#9BCD5B" fill-opacity="0.27"/>
<rect x="2004.16" y="1140.33" width="2871.09" height="6.6431" transform="rotate(-180 2004.16 1140.33)" fill="#9BCD5B" fill-opacity="0.27"/>
<rect x="2004.16" y="1127.05" width="2871.09" height="6.6431" transform="rotate(-180 2004.16 1127.05)" fill="#9BCD5B" fill-opacity="0.27"/>
<rect x="2004.16" y="1113.76" width="2871.09" height="6.6431" transform="rotate(-180 2004.16 1113.76)" fill="#9BCD5B" fill-opacity="0.27"/>
<rect x="2004.16" y="1100.48" width="2871.09" height="6.6431" transform="rotate(-180 2004.16 1100.48)" fill="#9BCD5B" fill-opacity="0.27"/>
<rect x="2004.16" y="1087.2" width="2871.09" height="6.6431" transform="rotate(-180 2004.16 1087.2)" fill="#9BCD5B" fill-opacity="0.27"/>
<rect x="2004.16" y="1073.91" width="2871.09" height="6.6431" transform="rotate(-180 2004.16 1073.91)" fill="#9BCD5B" fill-opacity="0.27"/>
<rect x="2004.16" y="1060.63" width="2871.09" height="6.6431" transform="rotate(-180 2004.16 1060.63)" fill="#9BCD5B" fill-opacity="0.27"/>
<rect x="2004.16" y="1047.34" width="2871.09" height="6.6431" transform="rotate(-180 2004.16 1047.34)" fill="#9BCD5B" fill-opacity="0.27"/>
<rect x="2004.16" y="1034.06" width="2871.09" height="6.6431" transform="rotate(-180 2004.16 1034.06)" fill="#9BCD5B" fill-opacity="0.27"/>
<rect x="2004.16" y="1020.78" width="2871.09" height="6.6431" transform="rotate(-180 2004.16 1020.78)" fill="#9BCD5B" fill-opacity="0.27"/>
<rect x="2004.16" y="1007.49" width="2871.09" height="6.6431" transform="rotate(-180 2004.16 1007.49)" fill="#9BCD5B" fill-opacity="0.27"/>
<rect x="2004.16" y="994.21" width="2871.09" height="6.6431" transform="rotate(-180 2004.16 994.21)" fill="#9BCD5B" fill-opacity="0.27"/>
<rect x="2004.16" y="980.925" width="2871.09" height="6.6431" transform="rotate(-180 2004.16 980.925)" fill="#9BCD5B" fill-opacity="0.27"/>
<rect x="2004.16" y="967.642" width="2871.09" height="6.6431" transform="rotate(-180 2004.16 967.642)" fill="#9BCD5B" fill-opacity="0.27"/>
<rect x="2004.16" y="954.357" width="2871.09" height="6.6431" transform="rotate(-180 2004.16 954.357)" fill="#9BCD5B" fill-opacity="0.27"/>
<rect x="2004.16" y="941.074" width="2871.09" height="6.6431" transform="rotate(-180 2004.16 941.074)" fill="#9BCD5B" fill-opacity="0.27"/>
<rect x="2004.16" y="927.79" width="2871.09" height="6.6431" transform="rotate(-180 2004.16 927.79)" fill="#9BCD5B" fill-opacity="0.27"/>
<rect x="2004.16" y="914.505" width="2871.09" height="6.6431" transform="rotate(-180 2004.16 914.505)" fill="#9BCD5B" fill-opacity="0.27"/>
<rect x="2004.16" y="901.222" width="2871.09" height="6.6431" transform="rotate(-180 2004.16 901.222)" fill="#9BCD5B" fill-opacity="0.27"/>
<rect x="2004.16" y="887.938" width="2871.09" height="6.6431" transform="rotate(-180 2004.16 887.938)" fill="#9BCD5B" fill-opacity="0.27"/>
<rect x="2004.16" y="874.654" width="2871.09" height="6.6431" transform="rotate(-180 2004.16 874.654)" fill="#9BCD5B" fill-opacity="0.27"/>
<rect x="2004.16" y="861.37" width="2871.09" height="6.6431" transform="rotate(-180 2004.16 861.37)" fill="#9BCD5B" fill-opacity="0.27"/>
<rect x="2004.16" y="848.086" width="2871.09" height="6.6431" transform="rotate(-180 2004.16 848.086)" fill="#9BCD5B" fill-opacity="0.27"/>
<rect x="2004.16" y="834.802" width="2871.09" height="6.6431" transform="rotate(-180 2004.16 834.802)" fill="#9BCD5B" fill-opacity="0.27"/>
<rect x="2004.16" y="821.518" width="2871.09" height="6.6431" transform="rotate(-180 2004.16 821.518)" fill="#9BCD5B" fill-opacity="0.27"/>
<rect x="2004.16" y="808.234" width="2871.09" height="6.6431" transform="rotate(-180 2004.16 808.234)" fill="#9BCD5B" fill-opacity="0.27"/>
<rect x="2004.16" y="794.95" width="2871.09" height="6.6431" transform="rotate(-180 2004.16 794.95)" fill="#9BCD5B" fill-opacity="0.27"/>
<rect x="2004.16" y="781.666" width="2871.09" height="6.6431" transform="rotate(-180 2004.16 781.666)" fill="#9BCD5B" fill-opacity="0.27"/>
<rect x="2004.16" y="768.382" width="2871.09" height="6.6431" transform="rotate(-180 2004.16 768.382)" fill="#9BCD5B" fill-opacity="0.27"/>
<rect x="2004.16" y="755.099" width="2871.09" height="6.6431" transform="rotate(-180 2004.16 755.099)" fill="#9BCD5B" fill-opacity="0.27"/>
<rect x="2004.16" y="741.815" width="2871.09" height="6.6431" transform="rotate(-180 2004.16 741.815)" fill="#9BCD5B" fill-opacity="0.27"/>
<rect x="2004.16" y="728.531" width="2871.09" height="6.6431" transform="rotate(-180 2004.16 728.531)" fill="#9BCD5B" fill-opacity="0.27"/>
<rect x="2004.16" y="715.247" width="2871.09" height="6.6431" transform="rotate(-180 2004.16 715.247)" fill="#9BCD5B" fill-opacity="0.27"/>
<rect x="2004.16" y="701.963" width="2871.09" height="6.6431" transform="rotate(-180 2004.16 701.963)" fill="#9BCD5B" fill-opacity="0.27"/>
<rect x="2004.16" y="688.679" width="2871.09" height="6.6431" transform="rotate(-180 2004.16 688.679)" fill="#9BCD5B" fill-opacity="0.27"/>
<rect x="2004.16" y="675.395" width="2871.09" height="6.6431" transform="rotate(-180 2004.16 675.395)" fill="#9BCD5B" fill-opacity="0.27"/>
<rect x="2004.16" y="662.111" width="2871.09" height="6.6431" transform="rotate(-180 2004.16 662.111)" fill="#9BCD5B" fill-opacity="0.27"/>
<rect x="2004.16" y="648.827" width="2871.09" height="6.6431" transform="rotate(-180 2004.16 648.827)" fill="#9BCD5B" fill-opacity="0.27"/>
<rect x="2004.16" y="635.543" width="2871.09" height="6.6431" transform="rotate(-180 2004.16 635.543)" fill="#9BCD5B" fill-opacity="0.27"/>
<rect x="2004.16" y="622.259" width="2871.09" height="6.6431" transform="rotate(-180 2004.16 622.259)" fill="#9BCD5B" fill-opacity="0.27"/>
<rect x="2004.16" y="608.975" width="2871.09" height="6.6431" transform="rotate(-180 2004.16 608.975)" fill="#9BCD5B" fill-opacity="0.27"/>
<rect x="2004.16" y="595.691" width="2871.09" height="6.6431" transform="rotate(-180 2004.16 595.691)" fill="#9BCD5B" fill-opacity="0.27"/>
<rect x="2004.16" y="582.407" width="2871.09" height="6.6431" transform="rotate(-180 2004.16 582.407)" fill="#9BCD5B" fill-opacity="0.27"/>
<rect x="2004.16" y="569.123" width="2871.09" height="6.6431" transform="rotate(-180 2004.16 569.123)" fill="#9BCD5B" fill-opacity="0.27"/>
<rect x="2004.16" y="555.839" width="2871.09" height="6.6431" transform="rotate(-180 2004.16 555.839)" fill="#9BCD5B" fill-opacity="0.27"/>
<rect x="2004.16" y="542.555" width="2871.09" height="6.6431" transform="rotate(-180 2004.16 542.555)" fill="#9BCD5B" fill-opacity="0.27"/>
<rect x="2004.16" y="529.272" width="2871.09" height="6.6431" transform="rotate(-180 2004.16 529.272)" fill="#9BCD5B" fill-opacity="0.27"/>
<rect x="2004.16" y="515.987" width="2871.09" height="6.6431" transform="rotate(-180 2004.16 515.987)" fill="#9BCD5B" fill-opacity="0.27"/>
<rect x="2004.16" y="502.704" width="2871.09" height="6.6431" transform="rotate(-180 2004.16 502.704)" fill="#9BCD5B" fill-opacity="0.27"/>
<rect x="2004.16" y="489.42" width="2871.09" height="6.6431" transform="rotate(-180 2004.16 489.42)" fill="#9BCD5B" fill-opacity="0.27"/>
<rect x="2004.16" y="476.136" width="2871.09" height="6.6431" transform="rotate(-180 2004.16 476.136)" fill="#9BCD5B" fill-opacity="0.27"/>
<rect x="2004.16" y="462.852" width="2871.09" height="6.6431" transform="rotate(-180 2004.16 462.852)" fill="#9BCD5B" fill-opacity="0.27"/>
<rect x="2004.16" y="449.568" width="2871.09" height="6.6431" transform="rotate(-180 2004.16 449.568)" fill="#9BCD5B" fill-opacity="0.27"/>
<rect x="2004.16" y="436.284" width="2871.09" height="6.6431" transform="rotate(-180 2004.16 436.284)" fill="#9BCD5B" fill-opacity="0.27"/>
<rect x="2004.16" y="423" width="2871.09" height="6.6431" transform="rotate(-180 2004.16 423)" fill="#9BCD5B" fill-opacity="0.27"/>
<rect x="2004.16" y="409.716" width="2871.09" height="6.6431" transform="rotate(-180 2004.16 409.716)" fill="#9BCD5B" fill-opacity="0.27"/>
<rect x="2004.16" y="396.432" width="2871.09" height="6.6431" transform="rotate(-180 2004.16 396.432)" fill="#9BCD5B" fill-opacity="0.27"/>
<rect x="2004.16" y="383.148" width="2871.09" height="6.6431" transform="rotate(-180 2004.16 383.148)" fill="#9BCD5B" fill-opacity="0.27"/>
<rect x="2004.16" y="369.864" width="2871.09" height="6.6431" transform="rotate(-180 2004.16 369.864)" fill="#9BCD5B" fill-opacity="0.27"/>
<rect x="2004.16" y="356.58" width="2871.09" height="6.6431" transform="rotate(-180 2004.16 356.58)" fill="#9BCD5B" fill-opacity="0.27"/>
<rect x="2004.16" y="343.296" width="2871.09" height="6.6431" transform="rotate(-180 2004.16 343.296)" fill="#9BCD5B" fill-opacity="0.27"/>
<rect x="2004.16" y="330.012" width="2871.09" height="6.6431" transform="rotate(-180 2004.16 330.012)" fill="#9BCD5B" fill-opacity="0.27"/>
<rect x="2004.16" y="316.729" width="2871.09" height="6.6431" transform="rotate(-180 2004.16 316.729)" fill="#9BCD5B" fill-opacity="0.27"/>
<rect x="2004.16" y="303.445" width="2871.09" height="6.6431" transform="rotate(-180 2004.16 303.445)" fill="#9BCD5B" fill-opacity="0.27"/>
<rect x="2004.16" y="290.16" width="2871.09" height="6.6431" transform="rotate(-180 2004.16 290.16)" fill="#9BCD5B" fill-opacity="0.27"/>
<rect x="2004.16" y="276.876" width="2871.09" height="6.6431" transform="rotate(-180 2004.16 276.876)" fill="#9BCD5B" fill-opacity="0.27"/>
<rect x="2004.16" y="263.593" width="2871.09" height="6.6431" transform="rotate(-180 2004.16 263.593)" fill="#9BCD5B" fill-opacity="0.27"/>
<rect x="2004.16" y="250.309" width="2871.09" height="6.6431" transform="rotate(-180 2004.16 250.309)" fill="#9BCD5B" fill-opacity="0.27"/>
<rect x="2004.16" y="237.025" width="2871.09" height="6.6431" transform="rotate(-180 2004.16 237.025)" fill="#9BCD5B" fill-opacity="0.27"/>
<rect x="2004.16" y="223.741" width="2871.09" height="6.6431" transform="rotate(-180 2004.16 223.741)" fill="#9BCD5B" fill-opacity="0.27"/>
<rect x="2004.16" y="210.457" width="2871.09" height="6.6431" transform="rotate(-180 2004.16 210.457)" fill="#9BCD5B" fill-opacity="0.27"/>
<rect x="2004.16" y="197.173" width="2871.09" height="6.6431" transform="rotate(-180 2004.16 197.173)" fill="#9BCD5B" fill-opacity="0.27"/>
<rect x="2004.16" y="183.889" width="2871.09" height="6.6431" transform="rotate(-180 2004.16 183.889)" fill="#9BCD5B" fill-opacity="0.27"/>
<rect x="2004.16" y="170.605" width="2871.09" height="6.6431" transform="rotate(-180 2004.16 170.605)" fill="#9BCD5B" fill-opacity="0.27"/>
<rect x="2004.16" y="157.321" width="2871.09" height="6.6431" transform="rotate(-180 2004.16 157.321)" fill="#9BCD5B" fill-opacity="0.27"/>
<rect x="2004.16" y="144.037" width="2871.09" height="6.6431" transform="rotate(-180 2004.16 144.037)" fill="#9BCD5B" fill-opacity="0.27"/>
<rect x="2004.16" y="130.753" width="2871.09" height="6.6431" transform="rotate(-180 2004.16 130.753)" fill="#9BCD5B" fill-opacity="0.27"/>
</g>
<defs>
<clipPath id="clip0">
<rect width="1224" height="2565" fill="white"/>
</clipPath>
</defs>
</svg>
